<svg width="113" height="24" viewBox="0 0 113 24" fill="none" xmlns="http://www.w3.org/2000/svg">
<path fill-rule="evenodd" clip-rule="evenodd" d="M102.025 7.49394C102.025 6.94802 102.503 6.50647 103.096 6.50647C103.684 6.50647 104.162 6.94802 104.162 7.49394C104.162 8.03585 103.684 8.4774 103.096 8.4774C102.503 8.4774 102.025 8.03585 102.025 7.49394ZM102.168 9.56923H104.015V17.2723H102.168V9.56923ZM96.7358 9.46891C94.921 9.46891 93.4987 10.8618 93.4987 13.4308C93.4987 15.9678 94.8802 17.4048 96.7276 17.4088C98.0764 17.4088 98.6855 16.6221 98.9757 16.0601H99.086V17.2723H100.905V7.00425H99.0533V10.8417H98.9757C98.6977 10.2878 98.1214 9.46891 96.7358 9.46891ZM97.2467 10.9581C98.4361 10.9581 99.0901 11.9255 99.0901 13.4188C99.0901 14.9161 98.4239 15.9156 97.2467 15.9156C96.0246 15.9156 95.3829 14.8639 95.3829 13.4188C95.3829 11.9858 96.0164 10.9581 97.2467 10.9581ZM41.2711 10.9742H39.7302V14.9562C39.7302 15.6868 40.1022 15.8473 40.5681 15.8473C40.797 15.8473 41.0055 15.8032 41.1076 15.7751L41.4183 17.1961C41.218 17.2603 40.8583 17.3606 40.3311 17.3767C38.9414 17.4168 37.8705 16.7063 37.8787 15.2572V10.9742H36.7669V9.56925H37.8787V7.72276H39.7261V9.56925H41.2711V10.9742ZM34.6987 11.7851C34.5556 11.2793 34.106 10.8217 33.2518 10.8217C32.4793 10.8217 31.8948 11.183 31.8989 11.7048C31.8948 12.1504 32.2095 12.4233 33.0065 12.5959L34.3431 12.8769C35.8227 13.194 36.5421 13.8644 36.5502 14.9643C36.5461 16.4214 35.1605 17.4209 33.2027 17.4209C31.2776 17.4209 30.0678 16.582 29.8389 15.169L31.6414 15.0004C31.8008 15.6908 32.3526 16.0521 33.1986 16.0521C34.0774 16.0521 34.6578 15.6547 34.6578 15.1288C34.6578 14.6913 34.3226 14.4063 33.5992 14.2498L32.2626 13.9728C30.7585 13.6677 30.0514 12.9251 30.0555 11.8012C30.0514 10.3761 31.3348 9.46494 33.2272 9.46494C35.0665 9.46494 36.1251 10.2959 36.3827 11.6004L34.6987 11.7851ZM45.3993 9.46889C43.1553 9.46889 41.688 11.0906 41.688 13.4669C41.688 15.8834 43.1308 17.4208 45.4974 17.4208C47.3244 17.4208 48.5792 16.5418 48.9062 15.2051L47.1813 15.0164C46.932 15.6667 46.3189 16.0079 45.5219 16.0079C44.3243 16.0079 43.5355 15.2372 43.5191 13.9165H48.9838V13.3586C48.9838 10.6571 47.3285 9.46889 45.3993 9.46889ZM45.4238 10.8819C46.4865 10.8819 47.2018 11.6445 47.21 12.6922H43.5232C43.5804 11.7088 44.3202 10.8819 45.4238 10.8819ZM49.8298 9.56919H51.6201V10.8537H51.7018C51.9879 9.96258 52.74 9.46081 53.6351 9.46081C53.8395 9.46081 54.1297 9.48088 54.2973 9.50898V11.1789C54.1379 11.1307 53.7496 11.0745 53.4389 11.0745C52.4212 11.0745 51.6732 11.7649 51.6732 12.7444V17.2723H49.8258V9.56919H49.8298ZM54.8164 17.2723H56.6598V12.7564C56.6598 11.6445 57.3424 11.0023 58.3192 11.0023C59.2757 11.0023 59.8479 11.6205 59.8479 12.6481V17.2723H61.6954V12.3671C61.6994 10.5206 60.6286 9.46889 59.01 9.46889C57.8369 9.46889 57.0277 10.0188 56.6721 10.8778H56.5821V9.56925H54.8164V17.2723ZM62.4964 15.1087C62.4964 13.3746 63.9515 12.9291 65.472 12.7685L65.6869 12.7463C66.9154 12.6196 67.4135 12.5683 67.4135 12.0781V12.05C67.4135 11.2913 66.9434 10.8618 66.0851 10.8618C65.1818 10.8618 64.6586 11.3114 64.4788 11.8413L62.7539 11.6004C63.1627 10.1955 64.4297 9.47293 66.0769 9.47293C67.5729 9.47293 69.2609 10.0831 69.2609 12.1222V17.2764H67.483V16.2166H67.4216C67.0865 16.8629 66.3508 17.4289 65.1205 17.4289C63.6245 17.4249 62.4964 16.6261 62.4964 15.1087ZM67.4176 14.5066V13.5994C67.1953 13.7733 66.3553 13.8892 65.8442 13.9597L65.7213 13.9768C64.8957 14.0932 64.2744 14.3822 64.2744 15.0806C64.2744 15.747 64.8262 16.0922 65.5987 16.0922C66.7145 16.0922 67.4176 15.3656 67.4176 14.5066ZM71.5498 15.185C70.9244 15.185 70.4217 15.6747 70.4258 16.2768C70.4176 16.8909 70.9244 17.3807 71.5498 17.3807C72.1547 17.3807 72.6697 16.8869 72.6738 16.2768C72.6697 15.6747 72.1506 15.185 71.5498 15.185ZM78.3798 11.7851C78.2367 11.2793 77.7871 10.8217 76.9329 10.8217C76.1604 10.8217 75.5759 11.183 75.58 11.7048C75.5759 12.1504 75.8906 12.4233 76.6876 12.5959L78.0242 12.8769C79.5038 13.194 80.2232 13.8644 80.2313 14.9643C80.2272 16.4214 78.8416 17.4209 76.8838 17.4209C74.9587 17.4209 73.7489 16.582 73.52 15.169L75.3225 15.0004C75.4819 15.6908 76.0337 16.0521 76.8797 16.0521C77.7585 16.0521 78.3389 15.6547 78.3389 15.1288C78.3389 14.6913 78.0037 14.4063 77.2803 14.2498L75.9437 13.9728C74.4396 13.6677 73.7325 12.9251 73.7366 11.8012C73.7325 10.3761 75.0159 9.46494 76.9083 9.46494C78.7476 9.46494 79.8062 10.2959 80.0637 11.6004L78.3798 11.7851ZM83.4153 10.9742H84.9562V9.56925H83.4112V7.72276H81.5638V9.56925H80.452V10.9742H81.5638V15.2572C81.5556 16.7063 82.6265 17.4168 84.0162 17.3767C84.5434 17.3606 84.9031 17.2603 85.1034 17.1961L84.7927 15.7751C84.6906 15.8032 84.4821 15.8473 84.2532 15.8473C83.7873 15.8473 83.4153 15.6868 83.4153 14.9562V10.9742ZM90.7887 9.56921H92.6362V17.2723H90.846V15.9035H90.7642C90.4086 16.7665 89.5789 17.3726 88.4058 17.3726C86.8649 17.3726 85.7899 16.325 85.7899 14.4744V9.56921H87.6374V14.1935C87.6374 15.1729 88.2301 15.7871 89.117 15.7871C89.9345 15.7871 90.7846 15.205 90.7846 14.0329V9.56921H90.7887ZM108.614 9.46889C106.317 9.46889 104.857 11.0625 104.857 13.4509C104.857 15.8313 106.321 17.4208 108.614 17.4208C110.911 17.4208 112.37 15.8313 112.37 13.4509C112.37 11.0625 110.911 9.46889 108.614 9.46889ZM108.63 10.91C109.881 10.91 110.502 12.0379 110.502 13.4469C110.502 14.8558 109.877 15.9677 108.63 15.9677C107.359 15.9677 106.738 14.8558 106.738 13.4469C106.738 12.0379 107.359 10.91 108.63 10.91Z" fill="#231F20"/>
<g filter="url(#filter0_d_1017_1355)">
<rect x="2" y="2.30554" width="19.3889" height="19.3889" rx="6" fill="#374999"/>
<mask id="mask0_1017_1355" style="mask-type:alpha" maskUnits="userSpaceOnUse" x="2" y="5" width="18" height="17">
<path d="M8.59221 18.5599C8.59221 20.0852 7.92438 21.2851 7.59046 21.6944L2 21.6944V6.31261C6.75673 4.65809 10.4018 7.756 11.6298 9.51177C15.4042 10.9853 18.459 12.8186 19.5146 13.5511C11.4036 10.9983 8.97999 12.7756 8.07518 13.6804C7.35133 14.4042 7.77357 15.5977 8.07518 16.104C8.49527 16.9119 8.59221 17.5905 8.59221 18.5599Z" fill="#C4C4C4"/>
</mask>
<g mask="url(#mask0_1017_1355)">
<rect x="2" y="5.86023" width="17.5146" height="15.8342" fill="white"/>
<path fill-rule="evenodd" clip-rule="evenodd" d="M6.65959 11.9285C8.34593 11.0601 9.38416 10.5255 12.5992 11.2244C12.5958 11.2176 12.5917 11.2013 12.5851 11.1756C12.5298 10.9585 12.3024 10.0668 10.8866 8.47764C8.94768 6.73264 8.01055 6.50644 8.01055 6.50644C4.45592 4.8907 2 6.31255 2 6.31255V10.1257C3.31844 10.1515 5.09145 11.6229 5.81314 12.3554C6.11817 12.2073 6.39675 12.0638 6.65959 11.9285ZM6.84722 9.02701C6.3832 9.02701 6.00703 9.40317 6.00703 9.86719C6.00703 10.3312 6.3832 10.7074 6.84722 10.7074C7.31124 10.7074 7.6874 10.3312 7.6874 9.86719C7.6874 9.40317 7.31124 9.02701 6.84722 9.02701Z" fill="#231F20"/>
<path d="M8.85062 11.0305C9.80714 11.4958 10.5848 12.1723 10.8541 12.4524L20.0315 14.4882V12.0969L11.6297 9.51172C12.1467 10.3131 12.4914 10.9874 12.5991 11.2244C10.8218 10.5781 8.78599 11.0305 8.85062 11.0305Z" fill="#E84627"/>
</g>
</g>
<defs>
<filter id="filter0_d_1017_1355" x="0" y="0.305542" width="23.3887" height="23.3889" filterUnits="userSpaceOnUse" color-interpolation-filters="sRGB">
<feFlood flood-opacity="0" result="BackgroundImageFix"/>
<feColorMatrix in="SourceAlpha" type="matrix" values="0 0 0 0 0 0 0 0 0 0 0 0 0 0 0 0 0 0 127 0" result="hardAlpha"/>
<feOffset/>
<feGaussianBlur stdDeviation="1"/>
<feColorMatrix type="matrix" values="0 0 0 0 0 0 0 0 0 0 0 0 0 0 0 0 0 0 0.25 0"/>
<feBlend mode="normal" in2="BackgroundImageFix" result="effect1_dropShadow_1017_1355"/>
<feBlend mode="normal" in="SourceGraphic" in2="effect1_dropShadow_1017_1355" result="shape"/>
</filter>
</defs>
</svg>
