<svg width="28" height="21" viewBox="0 0 28 21" fill="none" xmlns="http://www.w3.org/2000/svg">
<path d="M27.5172 21H0.48278C0.216179 21 0 20.7525 0 20.4473V0.552656C0 0.247468 0.216179 0 0.48278 0H27.5172C27.7838 0 28 0.247468 28 0.552656V20.4473C27.9999 20.7526 27.7838 21 27.5172 21Z" fill="#F5F5F5"/>
<path d="M27.9999 1.61546H0V0.552656C0 0.247468 0.216179 0 0.48278 0H27.5172C27.7838 0 28 0.247468 28 0.552656L27.9999 1.61546Z" fill="#FF4B55"/>
<path d="M27.9999 6.46143H0V8.07682H27.9999V6.46143Z" fill="#FF4B55"/>
<path d="M27.9999 3.23047H0V4.84587H27.9999V3.23047Z" fill="#FF4B55"/>
<path d="M27.9999 11.3078H0.48278C0.216179 11.3078 0 11.0604 0 10.7552V9.69238H27.9999V11.3078Z" fill="#FF4B55"/>
<path d="M27.9999 16.1543H0V17.7697H27.9999V16.1543Z" fill="#FF4B55"/>
<path d="M27.5172 21.0002H0.48278C0.216179 21.0002 0 20.7527 0 20.4475V19.3848H27.9999V20.4476C27.9999 20.7528 27.7838 21.0002 27.5172 21.0002Z" fill="#FF4B55"/>
<path d="M27.9999 12.9233H0V14.5387H27.9999V12.9233Z" fill="#FF4B55"/>
<path d="M12.5517 0H0.48278C0.216179 0 0 0.247405 0 0.552593V10.7549C0 11.0601 0.216179 11.3076 0.48278 11.3076H12.5517C12.8183 11.3076 13.0345 11.0601 13.0345 10.7549V0.552593C13.0345 0.247405 12.8183 0 12.5517 0Z" fill="#41479B"/>
<path d="M1.3555 1.26854L1.46236 1.63539L1.80017 1.63833C1.84392 1.63877 1.86202 1.70263 1.82685 1.73236L1.55511 1.96211L1.65705 2.33078C1.67028 2.37848 1.62276 2.41805 1.58716 2.38888L1.31235 2.16407L1.03755 2.38894C1.00195 2.41805 0.954535 2.37855 0.96766 2.33084L1.0696 1.96218L0.797856 1.73242C0.762692 1.70263 0.780793 1.63883 0.824543 1.6384L1.16235 1.63545L1.26921 1.2686C1.28299 1.22102 1.34161 1.22102 1.3555 1.26854Z" fill="#F5F5F5"/>
<path d="M1.3555 3.18744L1.46236 3.55429L1.80017 3.55723C1.84392 3.55767 1.86202 3.62152 1.82685 3.65126L1.55511 3.88101L1.65705 4.24968C1.67028 4.29738 1.62276 4.33695 1.58716 4.30777L1.31235 4.08297L1.03755 4.30784C1.00195 4.33695 0.954535 4.29744 0.96766 4.24974L1.0696 3.88108L0.797856 3.65132C0.762692 3.62152 0.780793 3.55773 0.824543 3.55729L1.16235 3.55435L1.26921 3.1875C1.28299 3.13998 1.34161 3.13998 1.3555 3.18744Z" fill="#F5F5F5"/>
<path d="M1.3555 5.10638L1.46236 5.47323L1.80017 5.47618C1.84392 5.47662 1.86202 5.54047 1.82685 5.57021L1.55511 5.79996L1.65705 6.16862C1.67028 6.21633 1.62276 6.25589 1.58716 6.22672L1.31235 6.00191L1.03755 6.22678C1.00195 6.25589 0.954535 6.21639 0.96766 6.16869L1.0696 5.80002L0.797856 5.57027C0.762692 5.54047 0.780793 5.47668 0.824543 5.47624L1.16235 5.4733L1.26921 5.10645C1.28299 5.05893 1.34161 5.05893 1.3555 5.10638Z" fill="#F5F5F5"/>
<path d="M1.3555 7.02538L1.46236 7.39223L1.80017 7.39517C1.84392 7.39561 1.86202 7.45946 1.82685 7.4892L1.55511 7.71895L1.65705 8.08762C1.67028 8.13532 1.62276 8.17488 1.58716 8.14571L1.31235 7.92091L1.03755 8.14577C1.00195 8.17488 0.954535 8.13538 0.96766 8.08768L1.0696 7.71901L0.797856 7.48926C0.762692 7.45946 0.780793 7.39567 0.824543 7.39523L1.16235 7.39229L1.26921 7.02544C1.28299 6.97786 1.34161 6.97786 1.3555 7.02538Z" fill="#F5F5F5"/>
<path d="M1.3555 8.94486L1.46236 9.31171L1.80017 9.31465C1.84392 9.31509 1.86202 9.37894 1.82685 9.40868L1.55511 9.63843L1.65705 10.0071C1.67028 10.0548 1.62276 10.0944 1.58716 10.0652L1.31235 9.84039L1.03755 10.0653C1.00195 10.0944 0.954535 10.0549 0.96766 10.0072L1.0696 9.63849L0.797856 9.40874C0.762692 9.37894 0.780793 9.31515 0.824543 9.31471L1.16235 9.31177L1.26921 8.94492C1.28299 8.89728 1.34161 8.89728 1.3555 8.94486Z" fill="#F5F5F5"/>
<path d="M2.65677 2.20942L2.76363 2.57627L3.10144 2.57921C3.14519 2.57965 3.16329 2.6435 3.12812 2.67324L2.85638 2.90299L2.95832 3.27166C2.97155 3.31936 2.92403 3.35893 2.88843 3.32975L2.61362 3.10489L2.33882 3.32975C2.30322 3.35887 2.2558 3.31936 2.26893 3.27166L2.37087 2.90299L2.09913 2.67324C2.06396 2.64344 2.08206 2.57965 2.12581 2.57921L2.46362 2.57627L2.57048 2.20942C2.5842 2.16196 2.64294 2.16196 2.65677 2.20942Z" fill="#F5F5F5"/>
<path d="M2.65677 4.12841L2.76363 4.49526L3.10144 4.4982C3.14519 4.49864 3.16329 4.5625 3.12812 4.59223L2.85638 4.82198L2.95832 5.19065C2.97155 5.23836 2.92403 5.27792 2.88843 5.24875L2.61362 5.02388L2.33882 5.24875C2.30322 5.27786 2.2558 5.23842 2.26893 5.19065L2.37087 4.82198L2.09913 4.59223C2.06396 4.56243 2.08206 4.49864 2.12581 4.4982L2.46362 4.49526L2.57048 4.12841C2.5842 4.08089 2.64294 4.08089 2.65677 4.12841Z" fill="#F5F5F5"/>
<path d="M2.65677 6.04736L2.76363 6.41421L3.10144 6.41715C3.14519 6.41759 3.16329 6.48144 3.12812 6.51118L2.85638 6.74093L2.95832 7.1096C2.97155 7.1573 2.92403 7.19686 2.88843 7.16769L2.61362 6.94282L2.33882 7.16769C2.30322 7.1968 2.2558 7.1573 2.26893 7.1096L2.37087 6.74093L2.09913 6.51118C2.06396 6.48138 2.08206 6.41759 2.12581 6.41715L2.46362 6.41421L2.57048 6.04736C2.5842 5.99984 2.64294 5.99984 2.65677 6.04736Z" fill="#F5F5F5"/>
<path d="M2.65677 7.96625L2.76363 8.33311L3.10144 8.33605C3.14519 8.33649 3.16329 8.40034 3.12812 8.43008L2.85638 8.65983L2.95832 9.0285C2.97155 9.0762 2.92403 9.11576 2.88843 9.08659L2.61362 8.86172L2.33882 9.08659C2.30322 9.1157 2.2558 9.0762 2.26893 9.0285L2.37087 8.65983L2.09913 8.43008C2.06396 8.40028 2.08206 8.33649 2.12581 8.33605L2.46362 8.33311L2.57048 7.96625C2.5842 7.9188 2.64294 7.9188 2.65677 7.96625Z" fill="#F5F5F5"/>
<path d="M3.95804 1.26855L4.0649 1.6354L4.4027 1.63834C4.44645 1.63878 4.46456 1.70263 4.42939 1.73237L4.15765 1.96212L4.25959 2.33079C4.27282 2.37849 4.2253 2.41806 4.1897 2.38888L3.91489 2.16402L3.64009 2.38888C3.60449 2.41799 3.55707 2.37849 3.5702 2.33079L3.67214 1.96212L3.40039 1.73237C3.36523 1.70257 3.38333 1.63878 3.42708 1.63834L3.76489 1.6354L3.87175 1.26855C3.88553 1.22103 3.94421 1.22103 3.95804 1.26855Z" fill="#F5F5F5"/>
<path d="M3.95804 3.18745L4.0649 3.5543L4.4027 3.55724C4.44645 3.55768 4.46456 3.62153 4.42939 3.65127L4.15765 3.88102L4.25959 4.24969C4.27282 4.29739 4.2253 4.33695 4.1897 4.30778L3.91489 4.08291L3.64009 4.30778C3.60449 4.33689 3.55707 4.29739 3.5702 4.24969L3.67214 3.88102L3.40039 3.65127C3.36523 3.62147 3.38333 3.55768 3.42708 3.55724L3.76489 3.5543L3.87175 3.18745C3.88553 3.13999 3.94421 3.13999 3.95804 3.18745Z" fill="#F5F5F5"/>
<path d="M3.95804 5.10639L4.0649 5.47324L4.4027 5.47619C4.44645 5.47662 4.46456 5.54048 4.42939 5.57021L4.15765 5.79997L4.25959 6.16863C4.27282 6.21634 4.2253 6.2559 4.1897 6.22673L3.91489 6.00186L3.64009 6.22673C3.60449 6.25584 3.55707 6.21634 3.5702 6.16863L3.67214 5.79997L3.40039 5.57021C3.36523 5.54042 3.38333 5.47662 3.42708 5.47619L3.76489 5.47324L3.87175 5.10639C3.88553 5.05894 3.94421 5.05894 3.95804 5.10639Z" fill="#F5F5F5"/>
<path d="M3.95804 7.02538L4.0649 7.39223L4.4027 7.39518C4.44645 7.39561 4.46456 7.45947 4.42939 7.48921L4.15765 7.71896L4.25959 8.08762C4.27282 8.13533 4.2253 8.17489 4.1897 8.14572L3.91489 7.92085L3.64009 8.14572C3.60449 8.17483 3.55707 8.13533 3.5702 8.08762L3.67214 7.71896L3.40039 7.48921C3.36523 7.45941 3.38333 7.39561 3.42708 7.39518L3.76489 7.39223L3.87175 7.02538C3.88553 6.97787 3.94421 6.97787 3.95804 7.02538Z" fill="#F5F5F5"/>
<path d="M3.95804 8.94486L4.0649 9.31171L4.4027 9.31466C4.44645 9.3151 4.46456 9.37895 4.42939 9.40869L4.15765 9.63844L4.25959 10.0071C4.27282 10.0548 4.2253 10.0944 4.1897 10.0652L3.91489 9.84033L3.64009 10.0652C3.60449 10.0943 3.55707 10.0548 3.5702 10.0071L3.67214 9.63844L3.40039 9.40869C3.36523 9.37889 3.38333 9.3151 3.42708 9.31466L3.76489 9.31171L3.87175 8.94486C3.88553 8.89729 3.94421 8.89729 3.95804 8.94486Z" fill="#F5F5F5"/>
<path d="M5.25882 2.20942L5.36568 2.57627L5.70349 2.57921C5.74724 2.57965 5.76534 2.6435 5.73017 2.67324L5.45843 2.90299L5.56037 3.27166C5.5736 3.31936 5.52608 3.35893 5.49048 3.32975L5.21567 3.10489L4.94087 3.32975C4.90527 3.35887 4.85786 3.31936 4.87098 3.27166L4.97292 2.90299L4.70118 2.67324C4.66601 2.64344 4.68411 2.57965 4.72786 2.57921L5.06567 2.57627L5.17253 2.20942C5.18625 2.16196 5.24499 2.16196 5.25882 2.20942Z" fill="#F5F5F5"/>
<path d="M5.25882 4.12841L5.36568 4.49526L5.70349 4.4982C5.74724 4.49864 5.76534 4.5625 5.73017 4.59223L5.45843 4.82198L5.56037 5.19065C5.5736 5.23836 5.52608 5.27792 5.49048 5.24875L5.21567 5.02388L4.94087 5.24875C4.90527 5.27786 4.85786 5.23842 4.87098 5.19065L4.97292 4.82198L4.70118 4.59223C4.66601 4.56243 4.68411 4.49864 4.72786 4.4982L5.06567 4.49526L5.17253 4.12841C5.18625 4.08089 5.24499 4.08089 5.25882 4.12841Z" fill="#F5F5F5"/>
<path d="M5.25882 6.04736L5.36568 6.41421L5.70349 6.41715C5.74724 6.41759 5.76534 6.48144 5.73017 6.51118L5.45843 6.74093L5.56037 7.1096C5.5736 7.1573 5.52608 7.19686 5.49048 7.16769L5.21567 6.94282L4.94087 7.16769C4.90527 7.1968 4.85786 7.1573 4.87098 7.1096L4.97292 6.74093L4.70118 6.51118C4.66601 6.48138 4.68411 6.41759 4.72786 6.41715L5.06567 6.41421L5.17253 6.04736C5.18625 5.99984 5.24499 5.99984 5.25882 6.04736Z" fill="#F5F5F5"/>
<path d="M5.25882 7.96625L5.36568 8.33311L5.70349 8.33605C5.74724 8.33649 5.76534 8.40034 5.73017 8.43008L5.45843 8.65983L5.56037 9.0285C5.5736 9.0762 5.52608 9.11576 5.49048 9.08659L5.21567 8.86172L4.94087 9.08659C4.90527 9.1157 4.85786 9.0762 4.87098 9.0285L4.97292 8.65983L4.70118 8.43008C4.66601 8.40028 4.68411 8.33649 4.72786 8.33605L5.06567 8.33311L5.17253 7.96625C5.18625 7.9188 5.24499 7.9188 5.25882 7.96625Z" fill="#F5F5F5"/>
<path d="M6.5599 1.26855L6.66676 1.6354L7.00457 1.63834C7.04832 1.63878 7.06642 1.70263 7.03125 1.73237L6.75951 1.96212L6.86145 2.33079C6.87468 2.37849 6.82716 2.41806 6.79156 2.38888L6.5167 2.16402L6.2419 2.38888C6.20629 2.41799 6.15888 2.37849 6.17201 2.33079L6.27394 1.96212L6.0022 1.73237C5.96704 1.70257 5.98514 1.63878 6.02889 1.63834L6.36669 1.6354L6.47355 1.26855C6.48739 1.22103 6.54607 1.22103 6.5599 1.26855Z" fill="#F5F5F5"/>
<path d="M6.56015 3.18745L6.66701 3.5543L7.00481 3.55724C7.04856 3.55768 7.06666 3.62153 7.0315 3.65127L6.75976 3.88102L6.86169 4.24969C6.87493 4.29739 6.8274 4.33695 6.7918 4.30778L6.51694 4.08291L6.24214 4.30778C6.20654 4.33689 6.15912 4.29739 6.17225 4.24969L6.27419 3.88102L6.00245 3.65127C5.96728 3.62147 5.98538 3.55768 6.02913 3.55724L6.36694 3.5543L6.4738 3.18745C6.48763 3.13999 6.54631 3.13999 6.56015 3.18745Z" fill="#F5F5F5"/>
<path d="M6.56015 5.10639L6.66701 5.47324L7.00481 5.47619C7.04856 5.47662 7.06666 5.54048 7.0315 5.57021L6.75976 5.79997L6.86169 6.16863C6.87493 6.21634 6.8274 6.2559 6.7918 6.22673L6.51694 6.00186L6.24214 6.22673C6.20654 6.25584 6.15912 6.21634 6.17225 6.16863L6.27419 5.79997L6.00245 5.57021C5.96728 5.54042 5.98538 5.47662 6.02913 5.47619L6.36694 5.47324L6.4738 5.10639C6.48763 5.05894 6.54631 5.05894 6.56015 5.10639Z" fill="#F5F5F5"/>
<path d="M6.56015 7.02538L6.66701 7.39223L7.00481 7.39518C7.04856 7.39561 7.06666 7.45947 7.0315 7.48921L6.75976 7.71896L6.86169 8.08762C6.87493 8.13533 6.8274 8.17489 6.7918 8.14572L6.51694 7.92085L6.24214 8.14572C6.20654 8.17483 6.15912 8.13533 6.17225 8.08762L6.27419 7.71896L6.00245 7.48921C5.96728 7.45941 5.98538 7.39561 6.02913 7.39518L6.36694 7.39223L6.4738 7.02538C6.48763 6.97787 6.54631 6.97787 6.56015 7.02538Z" fill="#F5F5F5"/>
<path d="M6.56015 8.94486L6.66701 9.31171L7.00481 9.31466C7.04856 9.3151 7.06666 9.37895 7.0315 9.40869L6.75976 9.63844L6.86169 10.0071C6.87493 10.0548 6.8274 10.0944 6.7918 10.0652L6.51694 9.84033L6.24214 10.0652C6.20654 10.0943 6.15912 10.0548 6.17225 10.0071L6.27419 9.63844L6.00245 9.40869C5.96728 9.37889 5.98538 9.3151 6.02913 9.31466L6.36694 9.31171L6.4738 8.94486C6.48763 8.89729 6.54631 8.89729 6.56015 8.94486Z" fill="#F5F5F5"/>
<path d="M7.86136 2.20942L7.96822 2.57627L8.30603 2.57921C8.34978 2.57965 8.36788 2.6435 8.33271 2.67324L8.06097 2.90299L8.16291 3.27166C8.17614 3.31936 8.12862 3.35893 8.09302 3.32975L7.81821 3.10489L7.54341 3.32975C7.50781 3.35887 7.46039 3.31936 7.47352 3.27166L7.57546 2.90299L7.30371 2.67324C7.26855 2.64344 7.28665 2.57965 7.3304 2.57921L7.66821 2.57627L7.77507 2.20942C7.7889 2.16196 7.84753 2.16196 7.86136 2.20942Z" fill="#F5F5F5"/>
<path d="M7.86136 4.12841L7.96822 4.49526L8.30603 4.4982C8.34978 4.49864 8.36788 4.5625 8.33271 4.59223L8.06097 4.82198L8.16291 5.19065C8.17614 5.23836 8.12862 5.27792 8.09302 5.24875L7.81821 5.02388L7.54341 5.24875C7.50781 5.27786 7.46039 5.23842 7.47352 5.19065L7.57546 4.82198L7.30371 4.59223C7.26855 4.56243 7.28665 4.49864 7.3304 4.4982L7.66821 4.49526L7.77507 4.12841C7.7889 4.08089 7.84753 4.08089 7.86136 4.12841Z" fill="#F5F5F5"/>
<path d="M7.86136 6.04736L7.96822 6.41421L8.30603 6.41715C8.34978 6.41759 8.36788 6.48144 8.33271 6.51118L8.06097 6.74093L8.16291 7.1096C8.17614 7.1573 8.12862 7.19686 8.09302 7.16769L7.81821 6.94282L7.54341 7.16769C7.50781 7.1968 7.46039 7.1573 7.47352 7.1096L7.57546 6.74093L7.30371 6.51118C7.26855 6.48138 7.28665 6.41759 7.3304 6.41715L7.66821 6.41421L7.77507 6.04736C7.7889 5.99984 7.84753 5.99984 7.86136 6.04736Z" fill="#F5F5F5"/>
<path d="M7.86136 7.96625L7.96822 8.33311L8.30603 8.33605C8.34978 8.33649 8.36788 8.40034 8.33271 8.43008L8.06097 8.65983L8.16291 9.0285C8.17614 9.0762 8.12862 9.11576 8.09302 9.08659L7.81821 8.86172L7.54341 9.08659C7.50781 9.1157 7.46039 9.0762 7.47352 9.0285L7.57546 8.65983L7.30371 8.43008C7.26855 8.40028 7.28665 8.33649 7.3304 8.33605L7.66821 8.33311L7.77507 7.96625C7.7889 7.9188 7.84753 7.9188 7.86136 7.96625Z" fill="#F5F5F5"/>
<path d="M9.16288 1.26855L9.26974 1.6354L9.60754 1.63834C9.65129 1.63878 9.66939 1.70263 9.63423 1.73237L9.36249 1.96212L9.46442 2.33079C9.47766 2.37849 9.43013 2.41806 9.39453 2.38888L9.11973 2.16402L8.84492 2.38888C8.80932 2.41799 8.76191 2.37849 8.77503 2.33079L8.87697 1.96212L8.60523 1.73237C8.57006 1.70257 8.58817 1.63878 8.63192 1.63834L8.96972 1.6354L9.07658 1.26855C9.09031 1.22103 9.14904 1.22103 9.16288 1.26855Z" fill="#F5F5F5"/>
<path d="M9.16312 3.18745L9.26998 3.5543L9.60778 3.55724C9.65153 3.55768 9.66963 3.62153 9.63447 3.65127L9.36273 3.88102L9.46467 4.24969C9.4779 4.29739 9.43038 4.33695 9.39478 4.30778L9.11997 4.08291L8.84517 4.30778C8.80957 4.33689 8.76215 4.29739 8.77528 4.24969L8.87721 3.88102L8.60547 3.65127C8.57031 3.62147 8.58841 3.55768 8.63216 3.55724L8.96996 3.5543L9.07682 3.18745C9.09055 3.13999 9.14928 3.13999 9.16312 3.18745Z" fill="#F5F5F5"/>
<path d="M9.16312 5.10639L9.26998 5.47324L9.60778 5.47619C9.65153 5.47662 9.66963 5.54048 9.63447 5.57021L9.36273 5.79997L9.46467 6.16863C9.4779 6.21634 9.43038 6.2559 9.39478 6.22673L9.11997 6.00186L8.84517 6.22673C8.80957 6.25584 8.76215 6.21634 8.77528 6.16863L8.87721 5.79997L8.60547 5.57021C8.57031 5.54042 8.58841 5.47662 8.63216 5.47619L8.96996 5.47324L9.07682 5.10639C9.09055 5.05894 9.14928 5.05894 9.16312 5.10639Z" fill="#F5F5F5"/>
<path d="M9.16312 7.02538L9.26998 7.39223L9.60778 7.39518C9.65153 7.39561 9.66963 7.45947 9.63447 7.48921L9.36273 7.71896L9.46467 8.08762C9.4779 8.13533 9.43038 8.17489 9.39478 8.14572L9.11997 7.92085L8.84517 8.14572C8.80957 8.17483 8.76215 8.13533 8.77528 8.08762L8.87721 7.71896L8.60547 7.48921C8.57031 7.45941 8.58841 7.39561 8.63216 7.39518L8.96996 7.39223L9.07682 7.02538C9.09055 6.97787 9.14928 6.97787 9.16312 7.02538Z" fill="#F5F5F5"/>
<path d="M9.16312 8.94486L9.26998 9.31171L9.60778 9.31466C9.65153 9.3151 9.66963 9.37895 9.63447 9.40869L9.36273 9.63844L9.46467 10.0071C9.4779 10.0548 9.43038 10.0944 9.39478 10.0652L9.11997 9.84033L8.84517 10.0652C8.80957 10.0943 8.76215 10.0548 8.77528 10.0071L8.87721 9.63844L8.60547 9.40869C8.57031 9.37889 8.58841 9.3151 8.63216 9.31466L8.96996 9.31171L9.07682 8.94486C9.09055 8.89729 9.14928 8.89729 9.16312 8.94486Z" fill="#F5F5F5"/>
<path d="M10.4639 2.20942L10.5708 2.57627L10.9086 2.57921C10.9523 2.57965 10.9704 2.6435 10.9353 2.67324L10.6635 2.90299L10.7654 3.27166C10.7787 3.31936 10.7312 3.35893 10.6956 3.32975L10.4208 3.10489L10.1459 3.32975C10.1103 3.35887 10.0629 3.31936 10.0761 3.27166L10.178 2.90299L9.90625 2.67324C9.87109 2.64344 9.88919 2.57965 9.93294 2.57921L10.2707 2.57627L10.3776 2.20942C10.3914 2.16196 10.4501 2.16196 10.4639 2.20942Z" fill="#F5F5F5"/>
<path d="M10.4639 4.12841L10.5708 4.49526L10.9086 4.4982C10.9523 4.49864 10.9704 4.5625 10.9353 4.59223L10.6635 4.82198L10.7654 5.19065C10.7787 5.23836 10.7312 5.27792 10.6956 5.24875L10.4208 5.02388L10.1459 5.24875C10.1103 5.27786 10.0629 5.23842 10.0761 5.19065L10.178 4.82198L9.90625 4.59223C9.87109 4.56243 9.88919 4.49864 9.93294 4.4982L10.2707 4.49526L10.3776 4.12841C10.3914 4.08089 10.4501 4.08089 10.4639 4.12841Z" fill="#F5F5F5"/>
<path d="M10.4639 6.04736L10.5708 6.41421L10.9086 6.41715C10.9523 6.41759 10.9704 6.48144 10.9353 6.51118L10.6635 6.74093L10.7654 7.1096C10.7787 7.1573 10.7312 7.19686 10.6956 7.16769L10.4208 6.94282L10.1459 7.16769C10.1103 7.1968 10.0629 7.1573 10.0761 7.1096L10.178 6.74093L9.90625 6.51118C9.87109 6.48138 9.88919 6.41759 9.93294 6.41715L10.2707 6.41421L10.3776 6.04736C10.3914 5.99984 10.4501 5.99984 10.4639 6.04736Z" fill="#F5F5F5"/>
<path d="M10.4639 7.96625L10.5708 8.33311L10.9086 8.33605C10.9523 8.33649 10.9704 8.40034 10.9353 8.43008L10.6635 8.65983L10.7654 9.0285C10.7787 9.0762 10.7312 9.11576 10.6956 9.08659L10.4208 8.86172L10.1459 9.08659C10.1103 9.1157 10.0629 9.0762 10.0761 9.0285L10.178 8.65983L9.90625 8.43008C9.87109 8.40028 9.88919 8.33649 9.93294 8.33605L10.2707 8.33311L10.3776 7.96625C10.3914 7.9188 10.4501 7.9188 10.4639 7.96625Z" fill="#F5F5F5"/>
<path d="M11.7654 1.26855L11.8723 1.6354L12.2101 1.63834C12.2538 1.63878 12.2719 1.70263 12.2368 1.73237L11.965 1.96212L12.067 2.33079C12.0802 2.37849 12.0327 2.41806 11.9971 2.38888L11.7223 2.16402L11.4475 2.38888C11.4119 2.41799 11.3644 2.37849 11.3776 2.33079L11.4795 1.96212L11.2078 1.73237C11.1726 1.70257 11.1907 1.63878 11.2345 1.63834L11.5723 1.6354L11.6791 1.26855C11.6929 1.22103 11.7515 1.22103 11.7654 1.26855Z" fill="#F5F5F5"/>
<path d="M11.7657 3.18745L11.8725 3.5543L12.2103 3.55724C12.2541 3.55768 12.2722 3.62153 12.237 3.65127L11.9653 3.88102L12.0672 4.24969C12.0804 4.29739 12.0329 4.33695 11.9973 4.30778L11.7225 4.08291L11.4477 4.30778C11.4121 4.33689 11.3647 4.29739 11.3778 4.24969L11.4798 3.88102L11.208 3.65127C11.1728 3.62147 11.1909 3.55768 11.2347 3.55724L11.5725 3.5543L11.6794 3.18745C11.6931 3.13999 11.7518 3.13999 11.7657 3.18745Z" fill="#F5F5F5"/>
<path d="M11.7657 5.10639L11.8725 5.47324L12.2103 5.47619C12.2541 5.47662 12.2722 5.54048 12.237 5.57021L11.9653 5.79997L12.0672 6.16863C12.0804 6.21634 12.0329 6.2559 11.9973 6.22673L11.7225 6.00186L11.4477 6.22673C11.4121 6.25584 11.3647 6.21634 11.3778 6.16863L11.4798 5.79997L11.208 5.57021C11.1728 5.54042 11.1909 5.47662 11.2347 5.47619L11.5725 5.47324L11.6794 5.10639C11.6931 5.05894 11.7518 5.05894 11.7657 5.10639Z" fill="#F5F5F5"/>
<path d="M11.7657 7.02538L11.8725 7.39223L12.2103 7.39518C12.2541 7.39561 12.2722 7.45947 12.237 7.48921L11.9653 7.71896L12.0672 8.08762C12.0804 8.13533 12.0329 8.17489 11.9973 8.14572L11.7225 7.92085L11.4477 8.14572C11.4121 8.17483 11.3647 8.13533 11.3778 8.08762L11.4798 7.71896L11.208 7.48921C11.1728 7.45941 11.1909 7.39561 11.2347 7.39518L11.5725 7.39223L11.6794 7.02538C11.6931 6.97787 11.7518 6.97787 11.7657 7.02538Z" fill="#F5F5F5"/>
<path d="M11.7657 8.94486L11.8725 9.31171L12.2103 9.31466C12.2541 9.3151 12.2722 9.37895 12.237 9.40869L11.9653 9.63844L12.0672 10.0071C12.0804 10.0548 12.0329 10.0944 11.9973 10.0652L11.7225 9.84033L11.4477 10.0652C11.4121 10.0943 11.3647 10.0548 11.3778 10.0071L11.4798 9.63844L11.208 9.40869C11.1728 9.37889 11.1909 9.3151 11.2347 9.31466L11.5725 9.31171L11.6794 8.94486C11.6931 8.89729 11.7518 8.89729 11.7657 8.94486Z" fill="#F5F5F5"/>
</svg>
